HIERARCHY
ROOT Hips
{
 OFFSET 0.000000 0.000000 0.000000
 CHANNELS 6 Xposition Yposition Zposition Yrotation Xrotation Zrotation
 JOINT Chest
 {
  OFFSET 0.000000 9.585900 0.002600
  CHANNELS 3 Yrotation Xrotation Zrotation
  JOINT Chest2
  {
   OFFSET 0.000000 9.601200 -0.005300
   CHANNELS 3 Yrotation Xrotation Zrotation
   JOINT Chest3
   {
    OFFSET 0.000000 9.561800 0.000000
    CHANNELS 3 Yrotation Xrotation Zrotation
    JOINT Chest4
    {
     OFFSET 0.000000 9.552100 0.000000
     CHANNELS 3 Yrotation Xrotation Zrotation
     JOINT Neck
     {
      OFFSET 0.000000 14.453000 0.000000
      CHANNELS 3 Yrotation Xrotation Zrotation
      JOINT Head
      {
       OFFSET 0.000000 8.936500 -0.011300
       CHANNELS 3 Yrotation Xrotation Zrotation
       End Site
       {
        OFFSET 0.000000 17.073600 -0.006000
       }
      }
     }
     JOINT RightCollar
     {
      OFFSET -2.921100 9.558500 0.000000
      CHANNELS 3 Yrotation Xrotation Zrotation
      JOINT RightShoulder
      {
       OFFSET -13.519700 0.000000 0.000000
       CHANNELS 3 Yrotation Xrotation Zrotation
       JOINT RightElbow
       {
        OFFSET 0.000000 -29.696600 0.000000
        CHANNELS 3 Yrotation Xrotation Zrotation
        JOINT RightWrist
        {
         OFFSET 0.000000 -24.004700 0.000000
         CHANNELS 3 Yrotation Xrotation Zrotation
         End Site
         {
          OFFSET 0.000000 -17.728500 0.000000
         }
        }
       }
      }
     }
     JOINT LeftCollar
     {
      OFFSET 2.921100 9.558500 0.000000
      CHANNELS 3 Yrotation Xrotation Zrotation
      JOINT LeftShoulder
      {
       OFFSET 13.519700 0.000000 0.000000
       CHANNELS 3 Yrotation Xrotation Zrotation
       JOINT LeftElbow
       {
        OFFSET 0.000000 -29.696600 0.000000
        CHANNELS 3 Yrotation Xrotation Zrotation
        JOINT LeftWrist
        {
         OFFSET 0.000000 -24.004700 0.000000
         CHANNELS 3 Yrotation Xrotation Zrotation
         End Site
         {
          OFFSET 0.000000 -17.728500 0.000000
         }
        }
       }
      }
     }
    }
   }
  }
 }
 JOINT RightHip
 {
  OFFSET -7.771700 -0.012900 -0.001300
  CHANNELS 3 Yrotation Xrotation Zrotation
  JOINT RightKnee
  {
   OFFSET 0.000000 -40.869800 0.001200
   CHANNELS 3 Yrotation Xrotation Zrotation
   JOINT RightAnkle
   {
    OFFSET 0.000000 -39.717900 0.002100
    CHANNELS 3 Yrotation Xrotation Zrotation
    JOINT RightToe
    {
     OFFSET 0.000000 -4.965400 11.033500
     CHANNELS 3 Yrotation Xrotation Zrotation
     End Site
     {
      OFFSET 0.000000 -1.423100 5.872300
     }
    }
   }
  }
 }
 JOINT LeftHip
 {
  OFFSET 7.771700 -0.012900 -0.001300
  CHANNELS 3 Yrotation Xrotation Zrotation
  JOINT LeftKnee
  {
   OFFSET 0.000000 -40.869800 0.001200
   CHANNELS 3 Yrotation Xrotation Zrotation
   JOINT LeftAnkle
   {
    OFFSET 0.000000 -39.717900 0.002100
    CHANNELS 3 Yrotation Xrotation Zrotation
    JOINT LeftToe
    {
     OFFSET 0.000000 -4.965400 11.033500
     CHANNELS 3 Yrotation Xrotation Zrotation
     End Site
     {
      OFFSET 0.000000 -1.423100 5.872300
     }
    }
   }
  }
 }
}
MOTION
Frames: 11
Frame Time: 0.008333
0.000000 85.388000 0.000000 0.000000 -5.767877 0.000000 0.000000 11.653817 0.000000 0.000000 -5.885947 0.000000 0.000000 -0.000000 0.000000 0.000000 -0.000000 0.000000 0.000000 12.528835 0.000000 0.000000 0.711642 0.000000 0.000000 -0.000000 0.000000 0.000000 0.000000 -90.000000 0.000000 -2.309062 0.000000 0.000000 2.309062 0.000000 0.000000 -0.000000 0.000000 0.000000 -0.000000 90.000000 0.000000 -2.309062 0.000000 0.000000 2.309062 0.000000 0.000000 8.520406 0.000000 0.000000 1.905762 0.000000 -0.000000 -4.658285 0.000000 0.000000 -0.000000 0.000000 0.000000 8.520406 0.000000 0.000000 1.905762 0.000000 -0.000000 -4.658285 0.000000 0.000000 -0.000000 0.000000
-26.244088 46.572976 17.503624 172.824905 -30.032559 -3.603540 1.069149 19.471084 1.967380 0.085898 2.366228 0.250096 0.152581 3.927705 0.394042 0.861238 16.797295 1.928020 -4.889827 18.612878 1.021006 -9.272731 -1.083861 3.490277 -0.716786 1.013699 -2.999881 -3.276696 -9.924422 -14.304121 -57.353604 -48.367776 94.898649 -6.835781 -4.548520 -12.019352 1.997409 -0.928221 2.769497 3.346803 -7.542351 11.326433 59.084514 -38.005008 -99.472182 14.479142 -5.488847 18.953515 -4.617914 -56.737359 -1.833977 -150.723587 77.864662 -140.878129 -15.830169 -14.443557 -5.178430 0.027129 -0.236325 -0.008840 -1.631752 -59.200302 16.418297 -109.209308 82.272955 -113.280392 7.810803 -5.331956 4.419660 0.030030 0.212098 0.025839
-26.245719 46.572251 17.502631 172.854710 -30.005863 -3.593246 1.041756 19.471193 1.928425 0.085485 2.368938 0.248468 0.155413 3.943737 0.391096 0.853706 16.794215 1.914922 -5.200542 18.398332 1.152547 -9.904988 -1.471716 3.848306 -0.628783 0.983541 -2.989948 -2.912798 -10.016953 -14.406890 -57.050389 -48.878578 94.837289 -6.593305 -4.278604 -11.853898 1.961198 -0.988356 2.823135 2.823346 -7.479532 11.392216 58.776771 -38.444122 -99.462977 14.072689 -4.604383 18.639995 -4.605120 -56.763708 -1.871632 -150.733571 77.855675 -140.891436 -15.831809 -14.429461 -5.178960 0.050353 -0.257528 0.005362 -1.621648 -59.222527 16.391132 -109.131112 82.283647 -113.220495 7.767657 -5.344368 4.424342 0.034974 0.237942 0.035006
-26.245117 46.573131 17.499812 172.906823 -29.987829 -3.607517 1.004236 19.490035 1.903019 0.085252 2.372684 0.247192 0.151797 3.930507 0.400021 0.853939 16.879223 1.876188 -5.506801 18.069635 1.331126 -10.556500 -1.966094 4.249658 -0.469171 0.919032 -2.945853 -2.624800 -10.148142 -14.543895 -56.776820 -49.393148 94.803417 -6.363850 -4.048864 -11.645345 1.928594 -1.104030 2.896157 2.299244 -7.410495 11.431973 58.528221 -38.952203 -99.462218 13.594660 -3.667523 18.264094 -4.629173 -56.780764 -1.878144 -150.743855 77.830294 -140.922895 -15.806544 -14.441443 -5.150145 0.037399 -0.256221 0.004313 -1.655336 -59.233254 16.390773 -109.037062 82.279861 -113.137415 7.732215 -5.340819 4.422879 0.054730 0.244605 0.042325
-26.244372 46.575483 17.495308 172.923242 -29.979896 -3.607878 1.019404 19.588722 1.878192 0.082318 2.364853 0.249642 0.145708 3.913613 0.407815 0.853008 16.894375 1.871762 -5.808306 17.700545 1.504477 -11.194171 -2.575727 4.682676 -0.362352 0.859927 -2.918564 -2.285149 -10.284458 -14.721807 -56.545707 -49.912620 94.805925 -6.143470 -3.849925 -11.410017 1.886223 -1.198866 2.946749 1.798599 -7.327474 11.445574 58.348004 -39.546083 -99.477123 13.043968 -2.673313 17.811522 -4.616861 -56.790969 -1.886117 -150.692101 77.806105 -140.881052 -15.804551 -14.440243 -5.129096 0.030693 -0.261029 0.009192 -1.660915 -59.236177 16.388206 -108.987390 82.274943 -113.092108 7.716448 -5.330364 4.407900 0.067423 0.236565 0.058910
-26.244741 46.575836 17.495502 172.954289 -29.936120 -3.619574 1.005692 19.612561 1.870273 0.084928 2.385304 0.247057 0.145187 3.922461 0.408598 0.848020 16.890732 1.876979 -6.077012 17.288451 1.677066 -11.778753 -3.293837 5.128710 -0.321486 0.783431 -2.909833 -1.873345 -10.410860 -14.935743 -56.363187 -50.446395 94.847047 -5.928206 -3.666171 -11.149979 1.862726 -1.288223 2.965937 1.309252 -7.224897 11.447849 58.239312 -40.235658 -99.513025 12.421674 -1.603787 17.261102 -4.589836 -56.837792 -1.901932 -150.600557 77.775098 -140.784563 -15.812198 -14.439776 -5.101614 0.042931 -0.261318 0.013945 -1.691646 -59.274635 16.398684 -108.896545 82.285012 -113.014840 7.698620 -5.318059 4.413133 0.060018 0.237513 0.058903
-26.247805 46.575724 17.497844 172.994356 -29.874420 -3.631022 0.981472 19.623816 1.859817 0.077690 2.351689 0.250258 0.148806 3.969828 0.408748 0.839212 16.906253 1.883238 -6.292067 16.831690 1.850379 -12.273136 -4.096736 5.567809 -0.228901 0.712116 -2.913241 -1.514236 -10.554742 -15.178732 -56.228091 -51.007574 94.929959 -5.709790 -3.484128 -10.867465 1.782712 -1.385331 2.993655 0.913368 -7.094429 11.404955 58.202420 -41.019701 -99.562388 11.716672 -0.465269 16.596119 -4.606735 -56.898695 -1.911680 -150.569261 77.764021 -140.758444 -15.814467 -14.439255 -5.085412 0.045406 -0.261247 0.013991 -1.721732 -59.327701 16.407781 -108.732711 82.299194 -112.876194 7.669868 -5.301244 4.433306 0.064548 0.243097 0.051267
-26.250454 46.577474 17.499298 173.025252 -29.821505 -3.651437 0.967991 19.643740 1.863609 0.072566 2.319014 0.254361 0.147974 4.018316 0.409974 0.824466 16.924054 1.893351 -6.442728 16.351074 2.021392 -12.654835 -4.948385 5.988407 -0.134583 0.621495 -2.930667 -1.167921 -10.689790 -15.439575 -56.133314 -51.606879 95.058276 -5.480016 -3.296681 -10.566183 1.677339 -1.496499 3.008981 0.577233 -6.923771 11.340900 58.240640 -41.892453 -99.618186 10.915882 0.713722 15.810619 -4.633837 -56.950940 -1.893891 -150.515170 77.752101 -140.735015 -15.768767 -14.420487 -5.047575 -0.011794 -0.265612 0.004569 -1.743975 -59.375121 16.431516 -108.579386 82.291993 -112.729036 7.623928 -5.292916 4.437433 0.110500 0.250076 0.061000
-26.254653 46.579603 17.502311 173.080348 -29.757985 -3.688882 0.929134 19.652075 1.871849 0.076509 2.328012 0.254532 0.139236 3.984089 0.414767 0.815597 16.933596 1.899253 -6.540510 15.921577 2.199251 -12.921014 -5.811344 6.389269 -0.059761 0.559306 -2.945720 -0.832164 -10.811320 -15.707465 -56.072450 -52.254325 95.225785 -5.231522 -3.092919 -10.240175 1.548041 -1.571619 3.019609 0.285201 -6.707294 11.271336 58.349655 -42.856748 -99.682573 10.023866 1.899146 14.890104 -4.673451 -57.011266 -1.863610 -150.387285 77.737976 -140.628280 -15.792662 -14.398049 -4.992682 -0.011824 -0.272626 -0.005489 -1.797330 -59.437222 16.448596 -108.505203 82.300695 -112.657653 7.610488 -5.284189 4.440905 0.126075 0.255035 0.066632
-26.261135 46.583298 17.504525 173.138753 -29.700915 -3.727585 0.878513 19.663301 1.877311 0.082085 2.339745 0.256199 0.135156 3.951047 0.417987 0.779766 17.021874 1.923994 -6.562018 15.420914 2.367069 -13.081133 -6.660771 6.772913 0.042389 0.395864 -2.986376 -0.515309 -10.924953 -15.976207 -56.045480 -52.958329 95.419838 -4.955001 -2.858450 -9.881008 1.415749 -1.739547 2.994552 0.048048 -6.449679 11.204509 58.529891 -43.912605 -99.763994 9.064074 3.063006 13.818741 -4.707603 -57.062561 -1.846780 -150.291526 77.729558 -140.528691 -15.848604 -14.358337 -4.970490 0.003550 -0.306180 0.004531 -1.845824 -59.493884 16.455437 -108.461620 82.313015 -112.615441 7.592063 -5.294960 4.441142 0.123621 0.277336 0.078663
-26.265254 46.588777 17.506497 173.167618 -29.652915 -3.779452 0.852093 19.676878 1.906566 0.092263 2.352288 0.263484 0.129508 3.963123 0.422845 0.737526 17.061624 1.946773 -6.532993 14.937097 2.533201 -13.151458 -7.484055 7.141937 0.153067 0.215341 -3.031407 -0.209607 -11.036347 -16.248079 -56.054966 -53.718937 95.631383 -4.641613 -2.586623 -9.486983 1.270039 -1.915905 2.955521 -0.146309 -6.165326 11.157369 58.786289 -45.035193 -99.877515 8.071011 4.187553 12.611099 -4.743584 -57.102700 -1.789171 -150.190604 77.723590 -140.417942 -15.885336 -14.336162 -4.953665 0.012012 -0.318234 0.016235 -1.926527 -59.540634 16.523793 -108.438790 82.319321 -112.592050 7.575656 -5.286468 4.451134 0.114789 0.276246 0.074034
